<svg width="20" height="20" viewBox="0 0 20 20" fill="none" xmlns="http://www.w3.org/2000/svg">
<g opacity="0.7">
<path d="M17.7975 0.679932H4.13812C3.97236 0.679932 3.81339 0.74578 3.69618 0.86299C3.57897 0.9802 3.51312 1.13917 3.51312 1.30493V5.07993H1.25C1.08424 5.07993 0.925268 5.14578 0.808058 5.26299C0.690848 5.3802 0.625 5.53917 0.625 5.70493V18.6949C0.625 18.8607 0.690848 19.0197 0.808058 19.1369C0.925268 19.2541 1.08424 19.3199 1.25 19.3199H14.7731C14.9389 19.3199 15.0979 19.2541 15.2151 19.1369C15.3323 19.0197 15.3981 18.8607 15.3981 18.6949V16.2956H17.7975C17.9633 16.2956 18.1222 16.2297 18.2394 16.1125C18.3566 15.9953 18.4225 15.8363 18.4225 15.6706V1.30493C18.4225 1.13917 18.3566 0.9802 18.2394 0.86299C18.1222 0.74578 17.9633 0.679932 17.7975 0.679932ZM14.1481 18.0699H1.875V6.32993H3.51312V15.6706C3.51312 15.8363 3.57897 15.9953 3.69618 16.1125C3.81339 16.2297 3.97236 16.2956 4.13812 16.2956H14.1481V18.0699ZM17.1725 15.0456H4.76312V1.92993H17.1725V15.0456Z" fill="white"/>
<path d="M7.26611 4.03613H10.0749C10.2406 4.03613 10.3996 3.97028 10.5168 3.85307C10.634 3.73586 10.6999 3.57689 10.6999 3.41113C10.6999 3.24537 10.634 3.0864 10.5168 2.96919C10.3996 2.85198 10.2406 2.78613 10.0749 2.78613H7.26611C7.10035 2.78613 6.94138 2.85198 6.82417 2.96919C6.70696 3.0864 6.64111 3.24537 6.64111 3.41113C6.64111 3.57689 6.70696 3.73586 6.82417 3.85307C6.94138 3.97028 7.10035 4.03613 7.26611 4.03613Z" fill="white"/>
<path d="M7.26611 6.89868H14.9886C15.1544 6.89868 15.3133 6.83283 15.4306 6.71562C15.5478 6.59841 15.6136 6.43944 15.6136 6.27368C15.6136 6.10792 15.5478 5.94895 15.4306 5.83174C15.3133 5.71453 15.1544 5.64868 14.9886 5.64868H7.26611C7.10035 5.64868 6.94138 5.71453 6.82417 5.83174C6.70696 5.94895 6.64111 6.10792 6.64111 6.27368C6.64111 6.43944 6.70696 6.59841 6.82417 6.71562C6.94138 6.83283 7.10035 6.89868 7.26611 6.89868Z" fill="white"/>
<path d="M7.26611 13.2168H10.0749C10.2406 13.2168 10.3996 13.1509 10.5168 13.0337C10.634 12.9165 10.6999 12.7575 10.6999 12.5918V9.08179C10.6999 8.91603 10.634 8.75706 10.5168 8.63985C10.3996 8.52264 10.2406 8.45679 10.0749 8.45679H7.26611C7.10035 8.45679 6.94138 8.52264 6.82417 8.63985C6.70696 8.75706 6.64111 8.91603 6.64111 9.08179V12.5918C6.64111 12.7575 6.70696 12.9165 6.82417 13.0337C6.94138 13.1509 7.10035 13.2168 7.26611 13.2168ZM7.89111 9.70679H9.44986V11.9668H7.89111V9.70679Z" fill="white"/>
<path d="M14.9887 8.45679H12.1812C12.0154 8.45679 11.8564 8.52264 11.7392 8.63985C11.622 8.75706 11.5562 8.91603 11.5562 9.08179V12.5918C11.5562 12.7575 11.622 12.9165 11.7392 13.0337C11.8564 13.1509 12.0154 13.2168 12.1812 13.2168H14.9887C15.1544 13.2168 15.3134 13.1509 15.4306 13.0337C15.5478 12.9165 15.6137 12.7575 15.6137 12.5918V9.08179C15.6137 8.91603 15.5478 8.75706 15.4306 8.63985C15.3134 8.52264 15.1544 8.45679 14.9887 8.45679ZM14.3637 11.9668H12.8062V9.70679H14.3637V11.9668Z" fill="white"/>
</g>
</svg>
